# xmcd
#
# Track frame offsets: 
#        150
#        13670
#        26225
#        38895
#        51130
#        64182
#        74390
#        86170
#        99502
#        112932
#        124860
#        142382
#        158837
#        172240
#        185552
#        197920
#        222212
#        239300
#        250707
#        262350
#
# Disc length: 3665 seconds
#
# Revision: 6
# Processed by: cddbd v1.5.2PL0 Copyright (c) Steve Scherf et al.
# Submitted via: ExactAudioCopy v1.3
#
DISCID=360e4f14
DTITLE=Various Artist - Brunswick Years Vol. 1 Disc 2
DYEAR=1995
DGENRE=Oldies
TTITLE0=Young-Holt Unlimited - Soulful Strut
TTITLE1=Barbara Acklin - Just Ain't No Love
TTITLE2=Tyrone Davis - Can I Change My Mind
TTITLE3=Artistics - Walking Tall
TTITLE4=Artistics - Yesterday's Girl
TTITLE5=Erma Franklin - Gotta Find Me A Lover
TTITLE6=Otis Leavill - I Love You
TTITLE7=Tyrone Davis - Turn Back The Hands Of Time
TTITLE8=Lost Generation - The Sly Slick And The Wicked
TTITLE9=Barbara Acklin - I Did It
TTITLE10=Chi-Lites - (For God's Sake) Give More Power To The People
TTITLE11=Chi-Lites - We Are Neighbors
TTITLE12=Chi-Lites - Living In The Footsteps Of Another Man
TTITLE13=Chi-Lites - I Want To Pay You Back
TTITLE14=Jackie Wilson - You Got Me Walking
TTITLE15=Tyrone Davis - I Had It All The Time
TTITLE16=Chi-Lites - Oh Girl
TTITLE17=Chi-Lites - Love Uprising
TTITLE18=Sidney Joe Qualis - How Can You Say Goodbye
TTITLE19=Tyrone Davis - A Woman Needs To Be Loved
EXTD=
EXTT0=
EXTT1=
EXTT2=
EXTT3=
EXTT4=
EXTT5=
EXTT6=
EXTT7=
EXTT8=
EXTT9=
EXTT10=
EXTT11=
EXTT12=
EXTT13=
EXTT14=
EXTT15=
EXTT16=
EXTT17=
EXTT18=
EXTT19=
PLAYORDER=
